# Blender v2.76 (sub 0) OBJ File: ''
# www.blender.org

mtllib ./cube.mtl

v 0.036301 -0.310488 1.405559
v 0.019711 1.689373 1.422219
v 1.422183 -0.286981 -0.036238
v 1.405592 1.712881 -0.019579
v -0.019711 -0.287397 -1.422219
v -0.019711 -0.287397 -1.422219
v -0.036301 1.712465 -1.405559
v -0.036301 1.712465 -1.405559
v -1.405592 -0.310904 0.019579
v -1.405592 -0.310904 0.019579
v -1.405592 -0.310904 0.019579
v -1.422183 1.688957 0.036238
v -1.422183 1.688957 0.036238
v -1.422183 1.688957 0.036238

vt 0.250000 0.375000
vt 0.500000 0.625000
vt 0.250000 0.625000
vt 0.750000 0.625000
vt 0.500000 0.375000
vt 1.000000 0.625000
vt 0.750000 0.375000
vt 0.000000 0.625000
vt 0.000000 0.375000
vt 0.500000 0.875000
vt 0.250000 0.875000
vt 0.250000 0.125000
vt 1.000000 0.375000
vt 0.500000 0.125000

vn 0.020900 -0.584000 0.811500
vn 0.811500 0.584200 -0.011300
vn 0.011400 0.570600 0.821100
vn -0.019800 0.008100 -0.999800
vn 0.821100 -0.570400 -0.020900
vn -0.720900 -0.000200 -0.693000
vn -0.692900 -0.011700 0.720900
vn -0.008300 0.999900 0.008300
vn 0.008300 -0.999900 -0.008300

o Würfel
usemtl Mat

f 1/1/1 4/2/2 2/3/3
f 8/4/4 4/2/2 3/5/5
f 12/6/6 8/4/4 6/7/4
f 2/3/3 14/8/7 10/9/7
f 7/10/8 13/11/8 2/3/3
f 3/5/5 1/1/1 9/12/9
f 1/1/1 3/5/5 4/2/2
f 6/7/4 8/4/4 3/5/5
f 11/13/6 12/6/6 6/7/4
f 1/1/1 2/3/3 10/9/7
f 4/2/2 7/10/8 2/3/3
f 5/14/9 3/5/5 9/12/9
